<svg width="51" height="20" viewBox="0 0 51 20" fill="none" xmlns="http://www.w3.org/2000/svg">
<path opacity="0.5" d="M0.8 16V14.944C1.04533 14.9333 1.248 14.9013 1.408 14.848C1.57867 14.7947 1.70667 14.672 1.792 14.48C1.888 14.288 1.936 13.9787 1.936 13.552V7.424C1.936 7.136 1.94133 6.85867 1.952 6.592C1.97333 6.32533 1.98933 6.12267 2 5.984C1.82933 5.99467 1.616 6.00533 1.36 6.016C1.104 6.016 0.917333 6.02133 0.8 6.032V4.8H8.8L8.896 7.904H7.84C7.84 7.31733 7.73867 6.87467 7.536 6.576C7.33333 6.27733 7.08267 6.08 6.784 5.984C6.48533 5.87733 6.192 5.82933 5.904 5.84L5.328 5.856C5.104 5.856 4.912 5.888 4.752 5.952C4.592 6.00533 4.46933 6.13333 4.384 6.336C4.29867 6.528 4.256 6.832 4.256 7.248V10.032H5.904L5.84 8.656H7.072V12.544H6.016C6.016 12.096 5.94667 11.7707 5.808 11.568C5.66933 11.3653 5.47733 11.2427 5.232 11.2C4.99733 11.1467 4.736 11.1253 4.448 11.136H4.256V13.376C4.256 13.664 4.25067 13.9413 4.24 14.208C4.22933 14.4747 4.21333 14.6773 4.192 14.816C4.30933 14.8053 4.464 14.8 4.656 14.8C4.848 14.7893 5.03467 14.784 5.216 14.784C5.408 14.7733 5.54133 14.768 5.616 14.768V16H0.8ZM13.0448 16.256C12.2768 16.256 11.5834 16.0907 10.9648 15.76C10.3461 15.4293 9.85542 14.96 9.49275 14.352C9.14075 13.7333 8.96475 13.008 8.96475 12.176C8.96475 11.2907 9.14608 10.5173 9.50875 9.856C9.88208 9.184 10.3728 8.66667 10.9808 8.304C11.5994 7.93067 12.2714 7.744 12.9968 7.744C13.7648 7.744 14.4528 7.90933 15.0608 8.24C15.6688 8.57067 16.1488 9.04533 16.5008 9.664C16.8528 10.272 17.0288 11.0027 17.0288 11.856C17.0288 12.752 16.8581 13.5307 16.5168 14.192C16.1754 14.8533 15.7061 15.3653 15.1088 15.728C14.5114 16.08 13.8234 16.256 13.0448 16.256ZM13.1088 15.12C13.5354 15.1093 13.8554 14.96 14.0688 14.672C14.2928 14.384 14.4474 14.0213 14.5328 13.584C14.6181 13.1467 14.6608 12.704 14.6608 12.256C14.6608 11.8613 14.6288 11.4613 14.5648 11.056C14.5114 10.6507 14.4208 10.2827 14.2928 9.952C14.1648 9.62133 13.9888 9.35467 13.7648 9.152C13.5514 8.94933 13.2848 8.85333 12.9648 8.864C12.5488 8.87467 12.2181 9.024 11.9728 9.312C11.7381 9.6 11.5674 9.96267 11.4608 10.4C11.3648 10.8267 11.3168 11.2747 11.3168 11.744C11.3168 12.288 11.3754 12.8213 11.4928 13.344C11.6101 13.8667 11.7968 14.2987 12.0528 14.64C12.3194 14.9707 12.6714 15.1307 13.1088 15.12ZM18.1873 14.96C18.4859 14.96 18.6993 14.9013 18.8273 14.784C18.9553 14.6667 19.0353 14.5013 19.0673 14.288C19.1099 14.064 19.1313 13.8133 19.1313 13.536V10.848C19.1313 10.656 19.1366 10.4427 19.1473 10.208C19.1579 9.96267 19.1739 9.72267 19.1953 9.488C19.0246 9.49867 18.8219 9.50933 18.5872 9.52C18.3633 9.52 18.1926 9.52533 18.0753 9.536V8.32H18.7153C19.1313 8.32 19.5099 8.26667 19.8513 8.16C20.2033 8.05333 20.4326 7.94667 20.5393 7.84H21.3233C21.3446 7.94667 21.3606 8.14933 21.3713 8.448C21.3819 8.736 21.3873 8.992 21.3873 9.216C21.6753 8.864 21.9473 8.58133 22.2033 8.368C22.4593 8.15467 22.7099 8 22.9553 7.904C23.2113 7.79733 23.4673 7.744 23.7233 7.744C24.0966 7.744 24.4219 7.85067 24.6993 8.064C24.9766 8.26667 25.1153 8.60267 25.1153 9.072C25.1153 9.232 25.0779 9.40267 25.0033 9.584C24.9286 9.75467 24.8113 9.89867 24.6513 10.016C24.4913 10.1333 24.2726 10.192 23.9953 10.192C23.7819 10.192 23.5633 10.128 23.3393 10C23.1153 9.872 22.9873 9.62667 22.9553 9.264C22.7419 9.264 22.5286 9.35467 22.3153 9.536C22.1019 9.70667 21.9099 9.91467 21.7393 10.16C21.5793 10.3947 21.4673 10.6133 21.4033 10.816V13.424C21.4033 13.5733 21.3979 13.7867 21.3873 14.064C21.3766 14.3307 21.3606 14.5867 21.3393 14.832C21.5099 14.8107 21.6966 14.8 21.8993 14.8C22.1126 14.7893 22.2726 14.784 22.3793 14.784V16H18.1873V14.96ZM26.1643 6.96C26.1643 6.768 26.1643 6.54933 26.1643 6.304C26.1749 6.048 26.1909 5.80267 26.2122 5.568C26.0416 5.57867 25.8389 5.58933 25.6043 5.6C25.3803 5.6 25.2096 5.60533 25.0922 5.616V4.4C25.5936 4.4 26.0096 4.37333 26.3403 4.32C26.6816 4.26667 26.9483 4.20267 27.1403 4.128C27.3429 4.05333 27.4816 3.984 27.5563 3.92H28.4203V8.608C28.7829 8.288 29.1509 8.064 29.5243 7.936C29.8976 7.808 30.2496 7.744 30.5803 7.744C31.2203 7.744 31.7803 7.90933 32.2603 8.24C32.7509 8.57067 33.1296 9.04 33.3963 9.648C33.6736 10.256 33.8123 10.9707 33.8123 11.792C33.8123 12.6453 33.6523 13.4133 33.3323 14.096C33.0229 14.768 32.5803 15.296 32.0043 15.68C31.4283 16.064 30.7349 16.256 29.9243 16.256C29.6363 16.256 29.2683 16.192 28.8203 16.064C28.3829 15.9467 27.9776 15.6907 27.6043 15.296L27.1243 16H26.1643V6.96ZM28.4203 13.6C28.4203 13.9627 28.4789 14.2507 28.5963 14.464C28.7136 14.6773 28.8629 14.832 29.0443 14.928C29.2256 15.024 29.4069 15.0773 29.5883 15.088C30.0683 15.0987 30.4416 14.96 30.7083 14.672C30.9856 14.384 31.1776 14.0053 31.2843 13.536C31.4016 13.056 31.4603 12.5547 31.4603 12.032C31.4603 11.5413 31.4016 11.0773 31.2843 10.64C31.1669 10.2027 30.9803 9.85067 30.7243 9.584C30.4683 9.30667 30.1323 9.17333 29.7163 9.184C29.4496 9.19467 29.2043 9.264 28.9803 9.392C28.7563 9.50933 28.5696 9.66933 28.4203 9.872V13.6ZM38.7761 16.256C37.9975 16.256 37.3095 16.0853 36.7121 15.744C36.1148 15.392 35.6508 14.9013 35.3201 14.272C34.9895 13.632 34.8241 12.88 34.8241 12.016C34.8241 11.2693 34.9895 10.5707 35.3201 9.92C35.6508 9.26933 36.1148 8.74667 36.7121 8.352C37.3201 7.94667 38.0241 7.744 38.8241 7.744C39.2721 7.744 39.7095 7.808 40.1361 7.936C40.5628 8.05333 40.9468 8.26133 41.2881 8.56C41.6401 8.85867 41.9175 9.264 42.1201 9.776C42.3335 10.288 42.4348 10.928 42.4241 11.696L37.1761 11.792C37.1761 12.368 37.2455 12.8853 37.3841 13.344C37.5335 13.8027 37.7735 14.1653 38.1041 14.432C38.4348 14.6987 38.8775 14.832 39.4321 14.832C39.6455 14.832 39.8855 14.7947 40.1521 14.72C40.4295 14.6453 40.7068 14.5227 40.9841 14.352C41.2721 14.1707 41.5388 13.9307 41.7841 13.632L42.5041 14.304C42.1201 14.848 41.7095 15.264 41.2721 15.552C40.8348 15.8293 40.3975 16.016 39.9601 16.112C39.5335 16.208 39.1388 16.256 38.7761 16.256ZM37.2721 10.672H40.2161C40.2055 10.224 40.1415 9.872 40.0241 9.616C39.9175 9.34933 39.7681 9.15733 39.5761 9.04C39.3841 8.92267 39.1601 8.864 38.9041 8.864C38.4348 8.864 38.0668 9.03467 37.8001 9.376C37.5335 9.70667 37.3575 10.1387 37.2721 10.672ZM47.2735 16.256C46.8148 16.256 46.3668 16.1973 45.9295 16.08C45.4922 15.9627 45.1508 15.8133 44.9055 15.632L44.9375 16.112H43.7215L43.6575 13.36H44.6975C44.7295 13.68 44.8575 13.9733 45.0815 14.24C45.3055 14.5067 45.5988 14.72 45.9615 14.88C46.3242 15.0293 46.7295 15.104 47.1775 15.104C47.3588 15.104 47.5295 15.0773 47.6895 15.024C47.8602 14.9707 47.9988 14.8853 48.1055 14.768C48.2228 14.64 48.2815 14.4853 48.2815 14.304C48.2815 14.1013 48.2068 13.936 48.0575 13.808C47.9188 13.68 47.7108 13.5573 47.4335 13.44C47.1668 13.3227 46.8308 13.1893 46.4255 13.04C46.0948 12.912 45.7588 12.7787 45.4175 12.64C45.0868 12.5013 44.7775 12.336 44.4895 12.144C44.2122 11.9413 43.9882 11.696 43.8175 11.408C43.6468 11.1093 43.5615 10.7467 43.5615 10.32C43.5615 10.0107 43.6202 9.70667 43.7375 9.408C43.8548 9.09867 44.0362 8.82133 44.2815 8.576C44.5268 8.32 44.8362 8.11733 45.2095 7.968C45.5935 7.81867 46.0468 7.744 46.5695 7.744C46.8575 7.744 47.1828 7.792 47.5455 7.888C47.9188 7.97333 48.2335 8.10667 48.4895 8.288V7.824H49.7055V10.656H48.6655C48.6015 10.2827 48.4682 9.96267 48.2655 9.696C48.0735 9.42933 47.8228 9.22667 47.5135 9.088C47.2042 8.93867 46.8575 8.864 46.4735 8.864C46.2068 8.864 45.9615 8.928 45.7375 9.056C45.5242 9.184 45.4175 9.40267 45.4175 9.712C45.4175 9.95733 45.5028 10.1547 45.6735 10.304C45.8442 10.4427 46.0788 10.56 46.3775 10.656C46.6762 10.752 47.0068 10.864 47.3695 10.992C47.9135 11.1733 48.3935 11.3867 48.8095 11.632C49.2362 11.8773 49.5722 12.176 49.8175 12.528C50.0628 12.8693 50.1855 13.2907 50.1855 13.792C50.1855 14.3467 50.0468 14.8053 49.7695 15.168C49.4922 15.5307 49.1295 15.8027 48.6815 15.984C48.2442 16.1653 47.7748 16.256 47.2735 16.256Z" fill="black"/>
</svg>
