<svg width="123" height="36" viewBox="0 0 123 36" fill="none" xmlns="http://www.w3.org/2000/svg">
<path d="M27.2233 4.99658C25.4794 8.28868 23.8152 16.7414 31.1097 24.2153C33.7505 21.3385 36.6703 13.4671 27.2233 4.99658Z" fill="black"/>
<path d="M33.0888 31.9026C31.9259 28.0791 33.9545 18.6694 50.8559 8.24878C49.6068 16.4142 44.2013 31.9026 33.0888 31.9026Z" fill="black"/>
<path d="M29.1523 32.915C10.5296 35.0013 -0.373246 14.3165 0.252769 3.03247C2.03987 3.33211 11.6194 7.04006 21.1609 16.4678C30.233 27.3173 32.9387 32.4908 29.1523 32.915Z" fill="black"/>
<path d="M70.2282 20.8042C70.2282 22.1667 69.7244 23.2027 68.7167 23.9124C67.7233 24.6078 66.3679 24.9555 64.6506 24.9555H62.8198V31.2356H60.7548V17.1426H65.3318C66.7653 17.1426 67.9361 17.4691 68.8444 18.1219C69.7669 18.7747 70.2282 19.6689 70.2282 20.8042ZM62.8198 24.3381H64.7145C65.3815 24.3381 65.9492 24.2104 66.4176 23.9549C66.9001 23.6995 67.2478 23.3731 67.4607 22.9757C67.8439 22.2661 68.0355 21.5777 68.0355 20.9107C68.0355 20.5843 67.9503 20.194 67.78 19.7398C67.4394 18.8031 66.7369 18.1929 65.6725 17.909C64.6506 17.909 63.6997 18.0297 62.8198 18.2709V24.3381ZM73.4016 16.6956V31.2356H71.6133V16.6956H73.4016ZM80.6299 28.979V26.7863C79.608 26.8573 78.7707 27.0843 78.1178 27.4675C77.465 27.8507 77.1386 28.2623 77.1386 28.7023C77.1386 29.1422 77.2521 29.5254 77.4792 29.8518C77.7063 30.1641 77.9972 30.3841 78.352 30.5118C78.8204 30.4266 79.3171 30.1925 79.8422 29.8093C80.3673 29.4261 80.6299 29.1493 80.6299 28.979ZM82.3755 28.4042C82.3755 29.4119 82.7445 30.1783 83.4825 30.7034L82.3755 31.5123L80.6512 29.9583C79.53 30.9801 78.4939 31.4911 77.5431 31.4911C76.9186 31.4911 76.3793 31.2924 75.9251 30.895C75.4852 30.4976 75.2652 30.0009 75.2652 29.4048C75.2652 28.7945 75.4426 28.2907 75.7974 27.8933C76.1664 27.4959 76.6489 27.1908 77.245 26.9779C78.2669 26.5947 79.3951 26.3534 80.6299 26.2541V24.253C80.6299 23.075 79.9487 22.486 78.5862 22.486C77.8056 22.486 76.8831 22.6563 75.8187 22.997L75.6271 22.4647C75.9109 22.2377 76.4006 21.9964 77.096 21.7409C77.8056 21.4855 78.4797 21.3577 79.1184 21.3577C79.7571 21.3577 80.2893 21.4429 80.715 21.6132C81.155 21.7835 81.4743 21.9751 81.673 22.188C81.8859 22.4009 82.0491 22.6918 82.1627 23.0608C82.2762 23.4298 82.3401 23.7208 82.3542 23.9337C82.3684 24.1465 82.3755 24.4304 82.3755 24.7852V28.4042ZM87.0271 22.9757C87.6232 22.408 88.1412 21.9964 88.5812 21.7409C89.0353 21.4855 89.5675 21.3577 90.1778 21.3577C90.7881 21.3577 91.3487 21.599 91.8596 22.0816C92.3847 22.5641 92.6473 23.3943 92.6473 24.5723V31.2356H90.8378V24.7852C90.8378 24.0898 90.71 23.5717 90.4546 23.2311C90.2133 22.8763 89.7875 22.6989 89.1773 22.6989C88.5812 22.6989 87.8858 23.0963 87.091 23.8911V31.2356H85.2815V24.551C85.2815 23.5859 84.9196 22.8125 84.1958 22.2306L85.2815 21.4216L87.0271 22.9757ZM97.5046 29.3622C97.5046 29.788 97.5897 30.1073 97.7601 30.3202C97.9304 30.5331 98.2142 30.6395 98.6116 30.6395C99.009 30.6395 99.4844 30.5331 100.038 30.3202V30.9163C99.2148 31.2995 98.4768 31.4911 97.8239 31.4911C97.1711 31.4911 96.6531 31.3137 96.2699 30.9588C95.9009 30.5898 95.7164 30.0222 95.7164 29.2558V22.3796L93.992 22.039V21.6132H95.7164V20.8468L97.5046 19.5482V21.6132H100.038V22.3796H97.5046V29.3622ZM108.474 21.6132H109.283L105.642 31.5549C105.174 32.8606 104.472 33.9108 103.535 34.7056C102.598 35.5004 101.569 35.9049 100.448 35.9191L100.661 34.8546C102.577 34.7837 104.067 33.5418 105.132 31.1292L100.81 21.6132H102.705L105.962 28.83L108.474 21.6132ZM110.359 16.8233H112.084V18.3135L111.466 22.0603H110.956L110.359 18.3135V16.8233ZM118.339 25.9348L122.15 31.2356H120.042L117.296 27.2121L114.358 31.2356H113.336L116.87 26.7437L113.4 21.6132H115.508L117.935 25.4877L120.787 21.6132H121.83L118.339 25.9348Z" fill="black"/>
</svg>
