<svg width="73" height="23" viewBox="0 0 73 23" fill="none" xmlns="http://www.w3.org/2000/svg">
<path d="M16.1569 3.72852C15.1219 5.68236 14.1342 10.699 18.4635 15.1348C20.0308 13.4273 21.7637 8.75571 16.1569 3.72852Z" fill="black"/>
<path d="M19.638 19.6974C18.9478 17.4282 20.1518 11.8436 30.1827 5.65894C29.4414 10.5051 26.2332 19.6974 19.638 19.6974Z" fill="black"/>
<path d="M17.3018 20.2982C6.24926 21.5364 -0.22152 9.26006 0.150017 2.56303C1.21066 2.74086 6.89607 4.94151 12.5589 10.5368C17.9431 16.976 19.549 20.0464 17.3018 20.2982Z" fill="black"/>
<path d="M41.6802 13.2404C41.6802 14.0491 41.3812 14.6639 40.7831 15.0851C40.1935 15.4978 39.3891 15.7042 38.3699 15.7042H37.2833V19.4314H36.0578V11.0673H38.7742C39.6249 11.0673 40.3198 11.261 40.8589 11.6485C41.4064 12.0359 41.6802 12.5666 41.6802 13.2404ZM37.2833 15.3378H38.4078C38.8037 15.3378 39.1406 15.262 39.4186 15.1104C39.705 14.9587 39.9113 14.765 40.0377 14.5292C40.2651 14.108 40.3788 13.6995 40.3788 13.3036C40.3788 13.1099 40.3283 12.8782 40.2272 12.6087C40.025 12.0528 39.6081 11.6906 38.9764 11.5221C38.3699 11.5221 37.8056 11.5937 37.2833 11.7369V15.3378ZM43.5636 10.802V19.4314H42.5022V10.802H43.5636ZM47.8535 18.0921V16.7908C47.2471 16.8329 46.7501 16.9676 46.3626 17.1951C45.9752 17.4225 45.7815 17.6668 45.7815 17.9279C45.7815 18.189 45.8488 18.4164 45.9836 18.6101C46.1184 18.7955 46.2911 18.926 46.5016 19.0018C46.7796 18.9513 47.0744 18.8123 47.3861 18.5849C47.6977 18.3575 47.8535 18.1932 47.8535 18.0921ZM48.8896 17.751C48.8896 18.349 49.1086 18.8039 49.5466 19.1155L48.8896 19.5956L47.8662 18.6733C47.2007 19.2798 46.5859 19.583 46.0215 19.583C45.6509 19.583 45.3308 19.4651 45.0613 19.2292C44.8002 18.9934 44.6696 18.6986 44.6696 18.3448C44.6696 17.9826 44.7749 17.6836 44.9855 17.4478C45.2045 17.2119 45.4909 17.0308 45.8446 16.9045C46.4511 16.6771 47.1207 16.5339 47.8535 16.4749V15.2872C47.8535 14.5881 47.4492 14.2386 46.6406 14.2386C46.1773 14.2386 45.6298 14.3396 44.9981 14.5418L44.8844 14.2259C45.0529 14.0912 45.3435 13.948 45.7562 13.7964C46.1773 13.6447 46.5774 13.5689 46.9565 13.5689C47.3355 13.5689 47.6514 13.6195 47.9041 13.7206C48.1652 13.8216 48.3547 13.9353 48.4726 14.0617C48.599 14.188 48.6958 14.3607 48.7632 14.5797C48.8306 14.7987 48.8685 14.9714 48.8769 15.0977C48.8854 15.2241 48.8896 15.3925 48.8896 15.6031V17.751ZM51.6503 14.5292C52.004 14.1922 52.3115 13.948 52.5726 13.7964C52.8421 13.6447 53.158 13.5689 53.5202 13.5689C53.8824 13.5689 54.2151 13.7121 54.5183 13.9985C54.83 14.2849 54.9858 14.7776 54.9858 15.4768V19.4314H53.9119V15.6031C53.9119 15.1904 53.8361 14.8829 53.6844 14.6808C53.5412 14.4702 53.2886 14.3649 52.9264 14.3649C52.5726 14.3649 52.1599 14.6008 51.6882 15.0725V19.4314H50.6142V15.4641C50.6142 14.8914 50.3994 14.4323 49.9699 14.087L50.6142 13.6068L51.6503 14.5292ZM57.8686 18.3196C57.8686 18.5722 57.9191 18.7618 58.0202 18.8881C58.1213 19.0145 58.2898 19.0776 58.5256 19.0776C58.7614 19.0776 59.0436 19.0145 59.3721 18.8881V19.2419C58.8836 19.4693 58.4456 19.583 58.0581 19.583C57.6707 19.583 57.3632 19.4777 57.1358 19.2671C56.9168 19.0481 56.8073 18.7112 56.8073 18.2564V14.1754L55.7839 13.9732V13.7206H56.8073V13.2657L57.8686 12.495V13.7206H59.3721V14.1754H57.8686V18.3196ZM64.3788 13.7206H64.8589L62.6984 19.6209C62.4205 20.3958 62.0035 21.0191 61.4476 21.4908C60.8917 21.9625 60.281 22.2026 59.6156 22.211L59.7419 21.5793C60.879 21.5372 61.7635 20.8001 62.3952 19.3682L59.8304 13.7206H60.9548L62.8879 18.0037L64.3788 13.7206ZM65.4979 10.8778H66.5213V11.7622L66.1549 13.9859H65.8517L65.4979 11.7622V10.8778ZM70.2337 16.2854L72.4953 19.4314H71.2445L69.6146 17.0435L67.8711 19.4314H67.2646L69.362 16.7655L67.3025 13.7206H68.5533L69.9937 16.0201L71.6867 13.7206H72.3058L70.2337 16.2854Z" fill="black"/>
</svg>
