<svg width="84" height="16" viewBox="0 0 84 16" fill="none" xmlns="http://www.w3.org/2000/svg">
<path opacity="0.5" d="M5.312 0.799999H0.88V12H5.552C6.944 12 8.032 11.728 8.8 11.152C9.568 10.576 9.968 9.808 9.968 8.816C9.968 8.048 9.728 7.456 9.264 7.04C8.8 6.624 8.144 6.352 7.296 6.256C8.016 6.16 8.576 5.888 8.992 5.472C9.392 5.056 9.6 4.48 9.6 3.76C9.6 2.816 9.216 2.08 8.464 1.568C7.712 1.056 6.656 0.799999 5.312 0.799999ZM3.824 5.264V3.024H5.36C5.76 3.024 6.08 3.136 6.304 3.328C6.528 3.536 6.656 3.808 6.656 4.144C6.656 4.496 6.528 4.768 6.304 4.96C6.08 5.168 5.76 5.264 5.36 5.264H3.824ZM3.824 9.76V7.456H5.584C6 7.456 6.336 7.568 6.576 7.76C6.816 7.968 6.944 8.256 6.944 8.608C6.944 8.976 6.816 9.264 6.576 9.456C6.336 9.664 6 9.76 5.584 9.76H3.824ZM11.2513 0.799999V12H14.0193V0.799999H11.2513ZM17.2304 11.584C17.9024 11.936 18.7024 12.096 19.6144 12.096C20.5104 12.096 21.3104 11.936 21.9824 11.584C22.6544 11.232 23.1824 10.736 23.5504 10.096C23.9184 9.456 24.1104 8.72 24.1104 7.872C24.1104 7.04 23.9184 6.288 23.5504 5.648C23.1824 5.008 22.6544 4.528 21.9824 4.176C21.3104 3.824 20.5104 3.648 19.6144 3.648C18.7024 3.648 17.9024 3.824 17.2304 4.176C16.5584 4.528 16.0304 5.008 15.6624 5.648C15.2944 6.288 15.1184 7.04 15.1184 7.872C15.1184 8.72 15.2944 9.456 15.6624 10.096C16.0304 10.736 16.5584 11.232 17.2304 11.584ZM20.8464 9.344C20.5424 9.712 20.1264 9.888 19.6144 9.888C19.0864 9.888 18.6704 9.712 18.3824 9.344C18.0784 8.976 17.9344 8.48 17.9344 7.872C17.9344 7.264 18.0784 6.784 18.3824 6.416C18.6704 6.048 19.0864 5.856 19.6144 5.856C20.1264 5.856 20.5424 6.048 20.8464 6.416C21.1344 6.784 21.2944 7.264 21.2944 7.872C21.2944 8.48 21.1344 8.976 20.8464 9.344ZM26.996 11.584C27.668 11.936 28.468 12.096 29.38 12.096C30.276 12.096 31.076 11.936 31.748 11.584C32.42 11.232 32.948 10.736 33.316 10.096C33.684 9.456 33.876 8.72 33.876 7.872C33.876 7.04 33.684 6.288 33.316 5.648C32.948 5.008 32.42 4.528 31.748 4.176C31.076 3.824 30.276 3.648 29.38 3.648C28.468 3.648 27.668 3.824 26.996 4.176C26.324 4.528 25.796 5.008 25.428 5.648C25.06 6.288 24.884 7.04 24.884 7.872C24.884 8.72 25.06 9.456 25.428 10.096C25.796 10.736 26.324 11.232 26.996 11.584ZM30.612 9.344C30.308 9.712 29.892 9.888 29.38 9.888C28.852 9.888 28.436 9.712 28.148 9.344C27.844 8.976 27.7 8.48 27.7 7.872C27.7 7.264 27.844 6.784 28.148 6.416C28.436 6.048 28.852 5.856 29.38 5.856C29.892 5.856 30.308 6.048 30.612 6.416C30.9 6.784 31.06 7.264 31.06 7.872C31.06 8.48 30.9 8.976 30.612 9.344ZM47.4176 4.544C46.8736 3.952 46.1696 3.648 45.3056 3.648C44.6976 3.648 44.1536 3.76 43.6736 3.984C43.1936 4.208 42.7936 4.544 42.4896 4.96C42.0256 4.096 41.2256 3.648 40.0896 3.648C39.5136 3.664 39.0176 3.76 38.6336 3.936C38.2496 4.128 37.9136 4.384 37.6256 4.736L37.4176 3.744H34.9856V12.016H37.7536V7.424C37.7536 6.928 37.8656 6.544 38.1056 6.272C38.3456 6 38.6656 5.856 39.0816 5.856C39.4976 5.856 39.7856 5.984 39.9616 6.24C40.1376 6.496 40.2336 6.896 40.2336 7.424V12.016H43.0016V7.424C43.0016 6.928 43.1136 6.544 43.3696 6.272C43.6096 6 43.9296 5.856 44.3296 5.856C44.7296 5.856 45.0176 6 45.2096 6.256C45.3856 6.512 45.4816 6.912 45.4816 7.424V12.016H48.2496V7.584C48.2496 6.144 47.9616 5.136 47.4176 4.544ZM56.5405 4.16C55.9645 3.824 55.3245 3.648 54.6205 3.648C53.6605 3.648 52.8765 3.984 52.3005 4.656V0.799999H49.5325V12H51.9645L52.2045 10.928C52.7965 11.712 53.5965 12.096 54.6205 12.096C55.3405 12.096 55.9805 11.92 56.5565 11.568C57.1165 11.216 57.5645 10.72 57.8845 10.08C58.2045 9.44 58.3645 8.688 58.3645 7.856C58.3645 7.024 58.2045 6.272 57.8845 5.632C57.5645 4.992 57.1165 4.512 56.5405 4.16ZM55.1005 9.344C54.7965 9.728 54.3965 9.904 53.9005 9.904C53.3885 9.904 52.9885 9.728 52.7005 9.344C52.4125 8.976 52.2685 8.48 52.2685 7.872C52.2685 7.264 52.4125 6.784 52.7005 6.4C52.9885 6.032 53.3885 5.84 53.9005 5.84C54.3965 5.84 54.7965 6.032 55.1005 6.4C55.3885 6.784 55.5485 7.264 55.5485 7.872C55.5485 8.48 55.3885 8.976 55.1005 9.344ZM59.662 5.648C59.31 6.288 59.134 7.04 59.134 7.904C59.134 8.768 59.31 9.504 59.678 10.128C60.046 10.768 60.59 11.248 61.294 11.584C61.998 11.936 62.83 12.096 63.806 12.096C64.542 12.096 65.198 11.968 65.774 11.712C66.35 11.456 66.798 11.104 67.134 10.656C67.47 10.208 67.678 9.728 67.758 9.184H65.038C64.878 9.792 64.398 10.096 63.614 10.096C62.686 10.096 62.142 9.584 62.014 8.56V8.528H67.774C67.822 8.272 67.854 7.984 67.854 7.632C67.854 6.848 67.662 6.16 67.294 5.552C66.91 4.944 66.398 4.48 65.726 4.144C65.054 3.824 64.286 3.648 63.422 3.648C62.558 3.648 61.806 3.824 61.166 4.176C60.526 4.528 60.014 5.008 59.662 5.648ZM65.118 6.832H62.046C62.11 6.448 62.27 6.144 62.526 5.936C62.782 5.728 63.134 5.616 63.566 5.616C63.982 5.616 64.318 5.728 64.59 5.936C64.862 6.144 65.038 6.448 65.118 6.832ZM74.4424 3.744H74.0424C73.4664 3.744 72.9864 3.856 72.6344 4.048C72.2664 4.256 71.9624 4.56 71.7224 4.96L71.4984 3.744H68.9544V12H71.7224V8.032C71.7224 6.816 72.2824 6.192 73.4024 6.192H74.4424V3.744ZM83.6691 3.744H81.2211L81.0131 4.784C80.3731 4.016 79.5731 3.616 78.5811 3.616C77.8611 3.616 77.2211 3.792 76.6451 4.128C76.0691 4.48 75.6371 4.96 75.3171 5.584C74.9971 6.208 74.8371 6.928 74.8371 7.744C74.8371 8.56 74.9971 9.28 75.3171 9.904C75.6371 10.528 76.0691 11.008 76.6451 11.36C77.2211 11.712 77.8611 11.872 78.5811 11.872C79.5571 11.872 80.3571 11.552 80.9651 10.88V11.744C80.9651 12.256 80.8051 12.64 80.5171 12.896C80.2131 13.168 79.7971 13.296 79.2851 13.296C78.4531 13.296 77.9411 12.96 77.7651 12.256H74.9811C74.9971 13.232 75.3811 13.984 76.1171 14.512C76.8531 15.04 77.8451 15.296 79.0771 15.296C80.6451 15.296 81.8131 14.976 82.5491 14.336C83.2851 13.696 83.6691 12.864 83.6691 11.84V3.744ZM80.5011 9.2C80.2131 9.552 79.8131 9.728 79.3011 9.728C78.7891 9.728 78.3891 9.552 78.1011 9.2C77.7971 8.848 77.6531 8.368 77.6531 7.776C77.6531 7.2 77.7971 6.72 78.1011 6.352C78.3891 6 78.7891 5.808 79.3011 5.808C79.8131 5.808 80.2131 6 80.5011 6.352C80.7891 6.72 80.9331 7.2 80.9331 7.776C80.9331 8.368 80.7891 8.848 80.5011 9.2Z" fill="black"/>
</svg>
